# xmcd
#
# Track frame offsets:
#	150
#	13252
#	25956
#	39826
#	52631
#	64379
#	76874
#	91248
#	104222
#	118009
#	132486
#	147202
#	160631
#	175115
#	187630
#
# Disc length: 2660 seconds
#
# Revision: 1
# Processed by: cddbd v1.5.2PL0 Copyright (c) Steve Scherf et al.
# Submitted via: audiograbber 1.83.01
#
DISCID=bb0a620f
DTITLE=Diverse - Motown Essentials (1/8)
DYEAR=1900
DGENRE=
TTITLE0=Stevie Wonder - Uptight (Everything's alright)
TTITLE1=Stevie Wonder - For once in my life
TTITLE2=Stevie Wonder - Blowin' in the wind
TTITLE3=Stevie Wonder - A place in the sun
TTITLE4=Stevie Wonder - I was made to love her
TTITLE5=Stevie Wonder - Shoo-bee-doo-bee-doo-da-day
TTITLE6=Stevie Wonder - Fingertips (Part 2)
TTITLE7=Stevie Wonder - My cherie amour
TTITLE8=Stevie Wonder - Yester-me, yester-you, yesterday
TTITLE9=Stevie Wonder - Heaven help us all
TTITLE10=Stevie Wonder - We can work it out
TTITLE11=Stevie Wonder - If you really love me
TTITLE12=Stevie Wonder - Never had a dream come true
TTITLE13=Stevie Wonder - I don't know why I love you
TTITLE14=Stevie Wonder - Signed, sealed, delivered (I'm yours)
EXTD=
EXTT0=
EXTT1=
EXTT2=
EXTT3=
EXTT4=
EXTT5=
EXTT6=
EXTT7=
EXTT8=
EXTT9=
EXTT10=
EXTT11=
EXTT12=
EXTT13=
EXTT14=
PLAYORDER=
